<?xml version="1.0" encoding="UTF-8" standalone="no"?>
<!-- Created with Inkscape (http://www.inkscape.org/) -->

<svg
   width="59.782032mm"
   height="64.498711mm"
   viewBox="0 0 59.782032 64.498711"
   version="1.1"
   id="svg1"
   xmlns:inkscape="http://www.inkscape.org/namespaces/inkscape"
   xmlns:sodipodi="http://sodipodi.sourceforge.net/DTD/sodipodi-0.dtd"
   xmlns="http://www.w3.org/2000/svg"
   xmlns:svg="http://www.w3.org/2000/svg">
  <sodipodi:namedview
     id="namedview1"
     pagecolor="#ffffff"
     bordercolor="#000000"
     borderopacity="0.25"
     inkscape:showpageshadow="2"
     inkscape:pageopacity="0.0"
     inkscape:pagecheckerboard="0"
     inkscape:deskcolor="#d1d1d1"
     inkscape:document-units="mm" />
  <defs
     id="defs1" />
  <g
     inkscape:label="Layer 1"
     inkscape:groupmode="layer"
     id="layer1"
     transform="translate(-74.347902,-151.07745)">
    <path
       fill="#474745"
       opacity="1"
       stroke="none"
       d="m 92.861981,208.58151 c -2.014816,-1.8e-4 -3.897339,-1.8e-4 -5.896428,-1.8e-4 0,1.96129 -0.0265,3.75781 0.0104,5.553 0.02059,1.00193 -0.361217,1.46123 -1.396539,1.43002 -1.409264,-0.0425 -2.820855,-0.0194 -4.231299,-0.007 -0.820557,0.007 -1.217594,-0.35249 -1.199377,-1.19612 0.02376,-1.10148 -0.04388,-2.20655 0.01535,-3.30537 0.202895,-3.7656 -0.589548,-7.43847 -0.91049,-11.15386 -0.282186,-3.26693 0.07388,-6.59769 0.260337,-9.89389 0.175958,-3.11065 0.498208,-6.21302 0.785722,-9.67555 -2.002557,0.60302 -3.798443,1.70204 -5.94828,0.79778 0,-1.97744 -4.8e-5,-4.0779 2.65e-4,-6.17835 0,-0.044 -0.01302,-0.10245 0.0095,-0.12996 0.933648,-1.13835 2.188514,-0.31916 3.281277,-0.48723 0.243573,-0.0375 0.772885,0.48099 0.830811,0.80436 0.127997,0.71457 0.03979,1.46787 0.03979,2.26112 0.767686,0 1.407181,0 2.065184,0 0.655646,-4.65466 1.233808,-9.27717 1.980322,-13.87233 0.47875,-2.94682 1.108493,-5.87906 1.87298,-8.7642 0.274936,-1.03749 1.012828,-2.04428 1.780302,-2.82971 0.595828,-0.60976 1.465932,-1.32167 2.517063,-0.45112 0.208772,0.17292 0.684033,0.0236 1.036418,0.0236 9.739328,2.6e-4 19.478671,0.007 29.217971,-0.01 0.7749,-0.001 1.61803,-0.39334 2.31027,-0.19266 1.49268,0.43271 2.42931,1.60717 2.78509,3.10309 0.67076,2.82018 1.36726,5.64386 1.82694,8.50246 0.76787,4.77515 1.35802,9.57889 2.03601,14.46464 0.57383,0 1.20826,0 1.9307,0 0.0188,-0.33607 0.0161,-0.67832 0.0615,-1.01405 0.0902,-0.66694 0.11831,-1.871 0.32752,-1.90532 1.15282,-0.18911 2.3537,-0.11489 3.53459,-0.0583 0.11889,0.006 0.30232,0.49719 0.3066,0.7656 0.0287,1.8068 0.0495,3.61542 -0.0152,5.42029 -0.0101,0.28141 -0.44591,0.7488 -0.72598,0.78185 -0.86945,0.10263 -1.75934,0.0552 -2.63993,0.0257 -0.2386,-0.008 -0.48777,-0.13097 -0.70534,-0.25002 -0.48619,-0.26602 -0.95553,-0.56282 -1.43174,-0.84706 -0.12004,0.0965 -0.24007,0.19291 -0.36009,0.28937 0.15475,1.95111 0.34366,3.90023 0.45722,5.85374 0.23776,4.08987 0.48716,8.18036 0.61947,12.27424 0.0407,1.25842 -0.35353,2.52452 -0.42727,3.79414 -0.22159,3.81542 -0.43477,7.63292 -0.53853,11.45265 -0.0329,1.21226 -0.41984,1.67383 -1.62005,1.61421 -1.31919,-0.0655 -2.64429,-0.0321 -3.96636,-0.0127 -0.88973,0.013 -1.28471,-0.3893 -1.27568,-1.27795 0.0187,-1.84203 0.006,-3.68437 0.006,-5.6988 -9.56221,0 -19.02329,0 -28.616664,-1.8e-4 m 8.978374,-32.09822 c 5.3e-4,-3.30283 -0.0228,-6.60593 0.0134,-9.90838 0.0136,-1.24157 -0.57473,-1.79649 -1.74439,-1.80019 -3.787205,-0.012 -7.574699,-0.0268 -11.361646,0.007 -1.590212,0.0143 -2.162561,0.66286 -2.2586,2.27259 -0.207092,3.47148 -0.408889,6.9435 -0.653835,10.41241 -0.1289,1.82555 0.325755,2.38935 2.198946,2.3972 3.963355,0.0166 7.927084,-0.022 11.890084,0.0184 1.310011,0.0134 1.834671,-0.63558 1.906521,-1.82355 0.0266,-0.43885 0.008,-0.88046 0.01,-1.57567 m 20.09946,-10.10465 c -0.20662,-1.09825 -0.98795,-1.57369 -1.98569,-1.58417 -3.92002,-0.0412 -7.84079,-0.0375 -11.76098,-0.008 -0.94658,0.007 -1.57818,0.4706 -1.57508,1.54573 0.0113,3.92046 -0.008,7.84108 0.0195,11.76137 0.008,1.12662 0.53473,1.79152 1.78936,1.7829 4.05246,-0.0279 8.10535,0.007 12.1578,-0.0217 1.72621,-0.0122 2.11285,-0.51841 2.00541,-2.30154 -0.21982,-3.64825 -0.4226,-7.29751 -0.65035,-11.17417 m -40.457293,19.375 c -0.789456,3.26125 -0.68071,6.56503 -0.706401,9.85482 1.138883,0 2.037051,0 3.128087,0 0,-3.37254 0,-6.64764 0,-10.07923 -0.682808,0.0318 -1.458971,0.0679 -2.421686,0.22441 m 44.821943,9.94971 c 0.41563,-0.0216 0.83127,-0.0433 1.50344,-0.0783 -0.19703,-3.00702 -0.41637,-5.88066 -0.55707,-8.75813 -0.0496,-1.01407 -0.45555,-1.42213 -1.45151,-1.3259 -0.4595,0.0444 -0.92685,0.008 -1.22586,0.008 0,3.46176 0,6.73599 0,10.07471 0.63386,0.0336 1.06069,0.0562 1.731,0.08 m -21.61319,-9.99538 c 0.23279,0.0789 0.46465,0.22275 0.69849,0.22601 1.36143,0.019 2.72456,0.0325 4.08371,-0.0282 0.19985,-0.009 0.38155,-0.42327 0.57164,-0.65003 -0.26059,-0.19168 -0.50967,-0.52744 -0.78382,-0.54931 -1.0125,-0.0808 -2.03498,-0.0998 -3.05031,-0.0583 -0.62735,0.0256 -1.62947,-0.49052 -1.51971,1.05981 z"
       id="path5"
       style="stroke-width:0.264583" />
    <path
       fill="#fefefe"
       opacity="1"
       stroke="none"
       d="m 101.84024,176.6107 c -0.002,0.56777 0.0172,1.00939 -0.009,1.44823 -0.0718,1.18798 -0.5965,1.83691 -1.906518,1.82355 -3.963,-0.0404 -7.926728,-0.002 -11.890083,-0.0184 -1.873192,-0.008 -2.327847,-0.57164 -2.198947,-2.39719 0.244946,-3.46891 0.446743,-6.94093 0.653835,-10.41241 0.09604,-1.60973 0.668388,-2.25833 2.2586,-2.2726 3.786947,-0.034 7.574441,-0.0191 11.361643,-0.007 1.16967,0.004 1.75797,0.55862 1.74439,1.80019 -0.0362,3.30244 -0.013,6.60554 -0.0135,10.03581 z"
       id="path53"
       style="stroke-width:0.264583" />
    <path
       fill="#fefefe"
       opacity="1"
       stroke="none"
       d="m 121.94879,166.49252 c 0.21877,3.76276 0.42155,7.41202 0.64137,11.06026 0.10744,1.78314 -0.2792,2.28937 -2.00542,2.30154 -4.05245,0.0286 -8.10534,-0.006 -12.1578,0.0217 -1.25463,0.009 -1.78147,-0.65628 -1.78936,-1.7829 -0.0275,-3.92029 -0.008,-7.84091 -0.0195,-11.76137 -0.003,-1.07513 0.6285,-1.53872 1.57508,-1.54573 3.9202,-0.0291 7.84097,-0.0327 11.76098,0.008 0.99774,0.0105 1.77907,0.48592 1.99468,1.69808 z"
       id="path54"
       style="stroke-width:0.264583" />
    <path
       fill="#f9f9f8"
       opacity="1"
       stroke="none"
       d="m 81.575784,185.6934 c 0.86944,-0.0963 1.645603,-0.13243 2.32841,-0.16419 0,3.43159 0,6.70669 0,10.07922 -1.091035,0 -1.989203,0 -3.128086,0 0.02569,-3.28979 -0.08306,-6.59357 0.799676,-9.91503 z"
       id="path55"
       style="stroke-width:0.264583" />
    <path
       fill="#fbfbfb"
       opacity="1"
       stroke="none"
       d="m 126.18272,195.70274 c -0.54858,-0.0232 -0.97541,-0.0458 -1.60927,-0.0794 0,-3.33872 0,-6.61295 0,-10.07471 0.29901,0 0.76636,0.0368 1.22586,-0.008 0.99597,-0.0962 1.40192,0.31183 1.45151,1.3259 0.14071,2.87747 0.36004,5.75111 0.55707,8.75813 -0.67216,0.035 -1.0878,0.0566 -1.62517,0.0777 z"
       id="path56"
       style="stroke-width:0.264583" />
    <path
       fill="#ededed"
       opacity="1"
       stroke="none"
       d="m 104.66283,185.60326 c -0.0813,-1.44564 0.92079,-0.92948 1.54814,-0.95513 1.01533,-0.0415 2.03781,-0.0225 3.05032,0.0583 0.27414,0.0219 0.52322,0.35763 0.78381,0.54931 -0.19008,0.22676 -0.37179,0.6411 -0.57163,0.65003 -1.35916,0.0607 -2.72229,0.0472 -4.08372,0.0282 -0.23383,-0.003 -0.4657,-0.14711 -0.72692,-0.33069 z"
       id="path57"
       style="stroke-width:0.264583" />
  </g>
</svg>
