<?xml version="1.0" encoding="UTF-8" standalone="no"?>
<!-- Created with Inkscape (http://www.inkscape.org/) -->

<svg
   width="174.28978mm"
   height="67.130775mm"
   viewBox="0 0 174.28978 67.130775"
   version="1.1"
   id="svg1"
   xmlns="http://www.w3.org/2000/svg"
   xmlns:svg="http://www.w3.org/2000/svg">
  <defs
     id="defs1" />
  <g
     id="layer1"
     transform="translate(-17.991709,-114.83011)">
    <path
       fill="#474745"
       opacity="1"
       stroke="none"
       d="m 189.99491,140.60344 c 0.16796,8.58586 0.33499,17.04695 0.48497,25.50834 0.0168,0.94669 -0.0543,1.86033 1.10962,2.26636 0.23892,0.0834 0.42943,0.53586 0.49511,0.84907 0.53839,2.56735 0.0492,3.586 -2.42537,4.40241 -1.44415,0.47645 -3.03817,0.99611 -4.49772,0.8457 -8.05016,-0.82959 -16.10989,-0.0773 -24.15819,-0.34681 -1.62627,-0.0545 -1.83238,-0.26126 -1.99301,-1.89666 -0.0731,-0.74462 -0.15052,-1.49401 -0.30455,-2.22468 -1.25456,-5.95127 -5.60042,-8.93391 -11.89496,-8.18417 -5.76569,0.68675 -8.04183,2.96404 -9.14704,8.98152 -0.68704,3.74061 0.1129,3.51117 -4.20493,3.58099 -16.66099,0.26943 -33.32458,0.39442 -49.987651,0.51214 -9.787265,0.0692 -19.575343,0.0232 -29.363055,0.0289 -0.478634,2.6e-4 -0.957271,4e-5 -1.386634,4e-5 -0.375036,-1.98751 -0.579707,-3.91858 -1.118383,-5.75148 -1.138809,-3.87493 -3.221112,-7.00313 -7.534688,-7.81445 -2.409605,-0.45321 -4.841848,-0.31742 -7.147901,0.6244 -3.402211,1.3895 -4.523923,4.37049 -5.087943,7.64145 -0.281358,1.6317 -0.322937,3.30475 -0.460457,4.82107 -2.574657,-0.10104 -5.122329,-0.0525 -7.629574,-0.34758 -1.918208,-0.22573 -3.522217,-1.35441 -4.826785,-2.79234 -0.845057,-0.93144 -0.76434,-3.3136 0.0011,-4.45317 0.109168,-0.16253 -0.04986,-0.74227 -0.222071,-0.81843 -1.155103,-0.51082 -0.65892,-1.03969 -0.122844,-1.66243 0.25089,-0.29146 0.495226,-0.6871 0.524986,-1.05321 0.124929,-1.53681 0.259356,-3.08271 0.218884,-4.62077 -0.06048,-2.29851 0.937437,-3.96697 2.751984,-5.24355 2.053264,-1.44452 4.167437,-2.81083 6.145469,-4.3519 2.787064,-2.17138 5.549161,-4.38699 8.186643,-6.73562 5.23262,-4.65955 10.506562,-9.28664 15.503909,-14.19155 3.31339,-3.25211 6.885363,-6.10965 10.687097,-8.71494 1.412317,-0.96785 2.918354,-1.80985 4.429308,-2.62041 2.52001,-1.35187 5.178406,-2.00118 8.097483,-1.995 23.807877,0.0504 47.615943,0.0138 71.423943,0.006 11.99169,-0.004 23.98337,-0.006 35.97507,-0.004 1.22959,1.4e-4 2.47123,-0.0731 3.6857,0.0703 1.48047,0.17478 2.13913,1.01927 2.23646,2.47678 0.51388,7.69484 1.03287,15.38932 1.55606,23.20862 M 59.510928,129.69728 c -2.536629,0.0727 -2.623135,0.17299 -2.864438,2.656 -0.195865,2.01547 -0.455099,4.0247 -0.668935,6.03852 -0.235045,2.21363 -0.450308,4.42935 -0.690351,6.80406 3.696737,-0.33598 7.202435,-0.5935 10.690855,-0.99945 1.559486,-0.18148 2.473849,-1.18576 2.624264,-2.55798 0.359836,-3.28276 0.698156,-6.56825 1.001871,-9.85663 0.146834,-1.58977 -0.415686,-2.14271 -2.042853,-2.13619 -2.599801,0.0104 -5.199549,0.0336 -8.050413,0.0517 m -12.730869,12.27913 c 0,1.26622 0,2.53243 0,3.93737 2.637134,-0.22958 5.200145,-0.45271 7.846748,-0.68313 0.52741,-4.7659 1.043522,-9.42968 1.559631,-14.09346 -3.162234,3.15566 -6.058109,6.35377 -8.928658,9.57446 -0.240832,0.2702 -0.311404,0.69216 -0.477721,1.26476 m -0.713026,-2.70521 c -0.228785,-0.16314 -0.457573,-0.32629 -0.754131,-0.53776 3.507121,-3.77659 6.972996,-7.50875 10.438868,-11.24092 -0.05471,-0.10313 -0.109413,-0.20625 -0.164121,-0.30937 -0.520583,0.19585 -1.159841,0.26028 -1.543994,0.6072 -5.981904,5.40209 -11.931785,10.83964 -17.882926,16.27572 -0.194969,0.1781 -0.325072,0.42719 -0.567796,0.75417 0.925415,0 1.680602,-0.066 2.419612,0.0153 1.147117,0.12607 1.99824,-0.2163 2.720105,-1.1487 0.684149,-0.88369 1.522775,-1.64777 2.524273,-2.70903 0,1.33405 -0.03021,2.33238 0.006,3.3283 0.08649,2.37633 0.350767,2.57561 2.65756,2.10361 0.07957,-0.0163 0.147825,-0.0879 0.245531,-0.14874 0,-2.25932 0,-4.53294 -0.09901,-6.98973 m -18.128649,22.91994 c 0.137387,-0.16207 0.392376,-0.32286 0.39416,-0.48642 0.02019,-1.85034 0.05167,-3.70422 -0.06311,-5.54823 -0.01635,-0.26269 -0.853739,-0.74935 -1.206425,-0.66955 -1.754768,0.39701 -3.486563,0.91228 -5.196799,1.47587 -0.359567,0.11848 -0.834644,0.60544 -0.847699,0.93864 -0.079,2.01619 -0.03933,4.03702 -0.03933,6.18197 2.344316,-0.63278 4.546548,-1.22721 6.959201,-1.89228 m 87.871357,-4.11129 c 4.49196,-8e-4 8.98393,0.002 13.47588,-0.005 1.03066,-0.002 1.03064,-0.0172 0.83871,-1.0395 -7.91181,0 -15.82241,0 -23.70813,0 -0.29131,0.86072 0.0585,1.06147 0.80564,1.05431 2.77421,-0.0266 5.54884,-0.0102 8.5879,-0.01 m 71.09797,-4.56123 c 0.002,1.89422 0.008,3.78845 0.003,5.68266 -0.003,0.98546 0.51216,1.22754 1.43257,1.22707 0.95078,-5.3e-4 1.24343,-0.37606 1.20905,-1.26101 -0.0427,-1.09963 -0.008,-2.20224 -0.008,-3.30356 5.3e-4,-1.82354 1.3e-4,-3.64708 1.3e-4,-5.66746 -1.57313,0.69124 -2.50763,1.55007 -2.6363,3.3223 M 78.098214,150.93229 c 0.39656,0.82677 3.054813,1.45934 3.436127,0.70514 0.468527,-0.9267 1.109761,-0.68665 1.781924,-0.79895 0.287904,-0.0481 0.527003,-0.38829 0.788276,-0.59576 -0.268121,-0.15241 -0.5198,-0.36685 -0.808067,-0.44323 -0.477318,-0.12649 -1.348001,-0.0577 -1.405411,-0.25741 -0.254733,-0.88603 -0.883644,-0.73042 -1.472842,-0.72874 -0.611495,0.002 -1.281859,-0.094 -1.819577,0.12068 -0.698786,0.27898 -1.292072,0.82222 -2.044983,1.32853 0.07258,0.58856 0.07258,0.58856 1.544553,0.66974 m -14.25316,-0.12854 c 0.53263,0.15334 1.183061,0.16743 1.569127,0.49403 0.524402,0.44361 3.080317,0.94043 3.310107,0.35832 0.39846,-1.00942 1.125786,-0.68166 1.794285,-0.82142 0.312211,-0.0653 0.556382,-0.45596 0.831393,-0.69915 -1.209006,-0.40176 -2.021248,-0.5615 -2.956957,-1.18188 -1.563272,-1.03646 -3.105878,0.75119 -4.723278,1.08494 -0.03551,0.007 0.0085,0.39992 0.175323,0.76516 z"
       id="path3"
       style="stroke-width:0.264583" />
    <path
       fill="#4a4a48"
       opacity="1"
       stroke="none"
       d="m 40.234006,181.64755 c -5.127586,-1.0307 -8.416046,-5.70877 -7.49605,-10.52857 1.002465,-5.25184 5.715668,-8.49255 10.918125,-7.50711 4.892104,0.92667 8.088585,5.72667 7.191955,10.79981 -0.840764,4.75704 -5.611191,8.05397 -10.61403,7.23587 m -4.328973,-7.58258 c 0.913419,3.01057 3.252595,4.73311 6.254975,4.60607 2.742118,-0.11602 5.017968,-2.09929 5.624661,-4.90153 0.561729,-2.59455 -0.806686,-5.38487 -3.278743,-6.5814 -2.114455,-1.02344 -4.214059,-0.88601 -6.132899,0.43938 -2.1638,1.49457 -2.925228,3.64593 -2.467994,6.43748 z"
       id="path7"
       style="stroke-width:0.264583" />
    <path
       fill="#4a4a48"
       opacity="1"
       stroke="none"
       d="m 138.86131,173.26673 c 0.0421,-5.0775 2.98694,-8.71923 7.65701,-9.59539 4.13125,-0.77507 8.59201,1.69463 10.08585,5.72471 1.32371,3.57115 0.72579,6.8925 -1.92183,9.66413 -2.64823,2.77225 -5.96317,3.55951 -9.56445,2.3526 -3.77797,-1.26613 -5.85112,-4.04419 -6.25658,-8.14605 m 8.04781,-6.4967 c -0.33753,0.0951 -0.6883,0.15805 -1.01047,0.29054 -2.37401,0.97633 -3.74705,2.77005 -3.93058,5.30515 -0.16802,2.32087 0.81009,4.22584 2.79331,5.47151 2.1141,1.32789 4.32836,1.34717 6.47766,0.0466 2.41802,-1.4632 3.45007,-4.3281 2.58521,-6.98437 -0.93014,-2.85672 -3.33092,-4.34699 -6.91513,-4.1294 z"
       id="path8"
       style="stroke-width:0.264583" />
    <path
       fill="#fefefe"
       opacity="1"
       stroke="none"
       d="m 59.636473,129.69711 c 2.725319,-0.0179 5.325067,-0.0411 7.924868,-0.0515 1.627167,-0.007 2.189687,0.54642 2.042853,2.13619 -0.303715,3.28838 -0.642035,6.57387 -1.001871,9.85663 -0.150415,1.37222 -1.064778,2.3765 -2.624264,2.55798 -3.48842,0.40595 -6.994118,0.66347 -10.690855,0.99945 0.240043,-2.37471 0.455306,-4.59043 0.690351,-6.80406 0.213836,-2.01382 0.47307,-4.02305 0.668935,-6.03852 0.241303,-2.48301 0.327809,-2.58333 2.989983,-2.65617 z"
       id="path42"
       style="stroke-width:0.264583" />
    <path
       fill="#fcfcfc"
       opacity="1"
       stroke="none"
       d="m 46.788385,141.86583 c 0.157991,-0.46202 0.228563,-0.88398 0.469395,-1.15418 2.870549,-3.22069 5.766424,-6.4188 8.928658,-9.57446 -0.516109,4.66378 -1.032221,9.32756 -1.559631,14.09346 -2.646603,0.23042 -5.209614,0.45355 -7.846748,0.68313 0,-1.40494 0,-2.67115 0.0083,-4.04795 z"
       id="path43"
       style="stroke-width:0.264583" />
    <path
       fill="#f9f9f8"
       opacity="1"
       stroke="none"
       d="m 46.11654,139.36279 c 0.0495,2.3652 0.0495,4.63882 0.0495,6.89814 -0.09771,0.0609 -0.165957,0.13247 -0.245531,0.14874 -2.306793,0.472 -2.571072,0.27272 -2.657559,-2.10361 -0.03625,-0.99592 -0.006,-1.99425 -0.006,-3.3283 -1.001498,1.06126 -1.840124,1.82534 -2.524273,2.70903 -0.721865,0.9324 -1.572987,1.27477 -2.720104,1.1487 -0.739011,-0.0812 -1.494198,-0.0153 -2.419612,-0.0153 0.242723,-0.32698 0.372827,-0.57608 0.567796,-0.75417 5.95114,-5.43608 11.901021,-10.87363 17.882925,-16.27572 0.384154,-0.34692 1.023411,-0.41135 1.543995,-0.6072 0.05471,0.10312 0.109413,0.20624 0.164121,0.30937 -3.465873,3.73217 -6.931748,7.46433 -10.438869,11.24092 0.296559,0.21147 0.525347,0.37462 0.803638,0.62934 z"
       id="path44"
       style="stroke-width:0.264583" />
    <path
       fill="#fbfbfb"
       opacity="1"
       stroke="none"
       d="m 27.833173,162.22646 c -2.307442,0.62975 -4.509673,1.22418 -6.85399,1.85696 0,-2.14495 -0.03967,-4.16579 0.03933,-6.18197 0.01305,-0.3332 0.488131,-0.82016 0.847698,-0.93865 1.710237,-0.56358 3.442031,-1.07885 5.196799,-1.47586 0.352686,-0.0798 1.190074,0.40686 1.206425,0.66954 0.114776,1.84402 0.0833,3.6979 0.06311,5.54824 -0.0018,0.16356 -0.256774,0.32435 -0.499372,0.52174 z"
       id="path45"
       style="stroke-width:0.264583" />
    <path
       fill="#ffffff"
       opacity="1"
       stroke="none"
       d="m 115.67744,158.07987 c -2.90676,-2.5e-4 -5.68139,-0.0166 -8.4556,0.01 -0.74715,0.007 -1.09695,-0.19359 -0.80564,-1.05431 7.88572,0 15.79632,0 23.70813,0 0.19193,1.02234 0.19195,1.0379 -0.83871,1.0395 -4.49195,0.007 -8.98392,0.004 -13.60818,0.005 z"
       id="path46"
       style="stroke-width:0.264583" />
    <path
       fill="#f9f9f8"
       opacity="1"
       stroke="none"
       d="m 186.90804,153.40215 c 0.12835,-1.65576 1.06285,-2.51459 2.63598,-3.20582 0,2.02037 2.6e-4,3.84391 -1.3e-4,5.66746 -2.3e-4,1.10132 -0.0346,2.20392 0.008,3.30355 0.0344,0.88495 -0.25827,1.26052 -1.20906,1.26101 -0.9204,5.3e-4 -1.43532,-0.24161 -1.43256,-1.22707 0.005,-1.8942 -0.001,-3.78843 -0.002,-5.79913 z"
       id="path47"
       style="stroke-width:0.264583" />
    <path
       fill="#f3f3f3"
       opacity="1"
       stroke="none"
       d="m 77.986149,150.90428 c -1.359897,-0.0532 -1.359897,-0.0532 -1.43248,-0.64175 0.752911,-0.50631 1.346197,-1.04955 2.044983,-1.32853 0.537718,-0.21467 1.208082,-0.11894 1.819576,-0.12068 0.589198,-0.002 1.21811,-0.15729 1.472843,0.72874 0.05741,0.19968 0.928092,0.13092 1.405411,0.2574 0.288267,0.0764 0.539946,0.29083 0.808067,0.44324 -0.261273,0.20747 -0.500372,0.54764 -0.788276,0.59575 -0.672163,0.1123 -1.313397,-0.12774 -1.781924,0.79896 -0.381314,0.75419 -3.039567,0.12163 -3.5482,-0.73313 z"
       id="path48"
       style="stroke-width:0.264583" />
    <path
       fill="#f3f3f3"
       opacity="1"
       stroke="none"
       d="m 63.765105,150.72755 c -0.08687,-0.28906 -0.130871,-0.68166 -0.09537,-0.68899 1.6174,-0.33374 3.160006,-2.1214 4.723278,-1.08494 0.935709,0.62039 1.747951,0.78013 2.956957,1.18188 -0.275011,0.2432 -0.519182,0.63389 -0.831393,0.69916 -0.668499,0.13976 -1.395825,-0.188 -1.794285,0.82142 -0.22979,0.58211 -2.785705,0.0853 -3.310107,-0.35833 -0.386066,-0.32659 -1.036497,-0.34068 -1.649084,-0.5702 z"
       id="path49"
       style="stroke-width:0.264583" />
    <path
       fill="#fcfcfc"
       opacity="1"
       stroke="none"
       d="m 35.870032,173.95813 c -0.422233,-2.68471 0.339195,-4.83607 2.502995,-6.33064 1.91884,-1.32539 4.018444,-1.46282 6.132899,-0.43938 2.472057,1.19653 3.840472,3.98685 3.278743,6.5814 -0.606693,2.80224 -2.882543,4.78551 -5.624661,4.90153 -3.00238,0.12704 -5.341556,-1.5955 -6.289976,-4.71291 m 6.289444,-3.23375 c -1.055679,-0.11596 -1.958353,0.28267 -2.085723,1.32289 -0.07923,0.64704 0.297047,1.5412 0.774385,2.01969 0.697272,0.69894 1.948667,0.33742 2.510038,-0.51005 0.662758,-1.00053 0.321802,-1.96053 -1.1987,-2.83253 z"
       id="path63"
       style="stroke-width:0.264583" />
    <path
       fill="#fcfcfc"
       opacity="1"
       stroke="none"
       d="m 147.02463,166.76016 c 3.4687,-0.20772 5.86948,1.28255 6.79962,4.13927 0.86486,2.65627 -0.16719,5.52117 -2.58521,6.98437 -2.1493,1.3006 -4.36356,1.28132 -6.47766,-0.0466 -1.98322,-1.24567 -2.96133,-3.15064 -2.79331,-5.47151 0.18353,-2.5351 1.55657,-4.32882 3.93058,-5.30515 0.32217,-0.13249 0.67294,-0.19541 1.12598,-0.30041 m 2.83528,5.94824 c -0.24685,-1.44298 -1.13498,-2.1616 -2.28348,-1.83271 -0.97729,0.27985 -1.49203,0.98167 -1.39952,1.95474 0.085,0.89392 0.62316,1.55063 1.6058,1.63098 1.11975,0.0916 1.86315,-0.37046 2.0772,-1.75301 z"
       id="path64"
       style="stroke-width:0.264583" />
    <path
       fill="#474745"
       opacity="1"
       stroke="none"
       d="m 42.26278,170.74401 c 1.417198,0.85237 1.758154,1.81237 1.095396,2.8129 -0.561371,0.84747 -1.812766,1.20899 -2.510038,0.51005 -0.477338,-0.47849 -0.853612,-1.37265 -0.774385,-2.01969 0.12737,-1.04022 1.030044,-1.43885 2.189027,-1.30326 z"
       id="path76"
       style="stroke-width:0.264583" />
    <path
       fill="#484846"
       opacity="1"
       stroke="none"
       d="m 149.85211,172.81587 c -0.20625,1.27508 -0.94965,1.73712 -2.0694,1.64554 -0.98264,-0.0804 -1.52079,-0.73706 -1.6058,-1.63098 -0.0925,-0.97307 0.42223,-1.67489 1.39952,-1.95474 1.1485,-0.32889 2.03663,0.38973 2.27568,1.94018 z"
       id="path77"
       style="stroke-width:0.264583" />
  </g>
</svg>
